<svg viewBox="0 0 60 60" fill="none" xmlns="http://www.w3.org/2000/svg">
<rect width="60" height="60" fill="white"/>
<path d="M21.4286 29.6233V20.7598L30 27.1883L38.5714 20.7598V29.6233L30 36.0519L21.4286 29.6233Z" fill="#F55376"/>
<path d="M21.4286 29.6222L15 24.8008V39.8236C15 40.9558 15.9171 41.8694 17.0457 41.8694H21.4286V29.6222Z" fill="#6C19FF"/>
<path d="M21.4286 20.7588L19.9093 19.6195C17.8843 18.1023 15 19.5445 15 22.0738V24.8009L21.4286 29.6223V20.7588Z" fill="#EB0000"/>
<path d="M38.5714 29.6215V41.8686H42.9543C44.0864 41.8686 45 40.9515 45 39.8229V24.8008L38.5714 29.6215Z" fill="#3DDAB4"/>
<path d="M40.0907 19.6195L38.5714 20.7588V29.6223L45 24.8009V22.0738C45 19.5445 42.1128 18.1023 40.0907 19.6195Z" fill="#F5BC00"/>
</svg>
