<svg viewBox="0 0 60 60" fill="none" xmlns="http://www.w3.org/2000/svg">
<rect width="60" height="60" fill="white"/>
<path d="M21.5217 29.462V29.4535V20.9746L21.4435 20.9166H21.437L19.6565 19.5992C18.5674 18.7905 17.0152 18.8296 16.05 19.7818C15.4043 20.4209 15 21.3079 15 22.2927V24.6418L21.5217 29.462ZM38.4783 29.4535V29.462L45 24.6418V22.2927C45 21.3209 44.6087 20.434 43.9696 19.7948C43.0174 18.8446 41.5141 18.7331 40.4322 19.532L38.5565 20.9166L38.4783 20.9746V29.4535ZM22.8261 30.4174L29.6126 35.434C29.8428 35.6042 30.1578 35.6042 30.388 35.434L37.1739 30.4174V21.9385L30 27.2427L22.8261 21.9385V30.4174ZM38.4783 31.0833V40.9383C38.4783 41.2983 38.7704 41.5905 39.1304 41.5905H43.3696C44.2702 41.5905 45 40.8607 45 39.9601V26.2624L38.4783 31.0833ZM21.5217 31.0833L15 26.2624V39.9601C15 40.8607 15.7298 41.5905 16.6304 41.5905H20.8696C21.2296 41.5905 21.5217 41.2983 21.5217 40.9383V31.0833Z" fill="black"/>
</svg>
