<svg  viewBox="0 0 105 105" fill="none" xmlns="http://www.w3.org/2000/svg">
<path d="M102 52.5C102 79.8381 79.8381 102 52.5 102C25.1619 102 3 79.8381 3 52.5C3 25.1619 25.1619 3 52.5 3C79.8381 3 102 25.1619 102 52.5Z" fill="black"/>
<path d="M30.2398 79.824V74.8059C31.4057 74.7552 32.3687 74.6031 33.1291 74.3497C33.9401 74.0963 34.5483 73.5133 34.9538 72.601C35.41 71.6886 35.6381 70.2186 35.6381 68.1911V39.0708C35.6381 37.7023 35.6635 36.3844 35.7142 35.1172C35.8155 33.85 35.8916 32.8869 35.9422 32.228C35.1312 32.2787 34.1175 32.3293 32.901 32.38C31.6845 32.38 30.7974 32.4054 30.2398 32.4561V26.6016C33.8387 26.5509 37.4375 26.5256 41.0364 26.5256C44.6352 26.5256 48.2341 26.5002 51.8329 26.4495C56.2935 26.3988 60.1711 26.9057 63.4658 27.9702C66.7606 29.0346 69.295 30.758 71.069 33.1404C72.8431 35.5227 73.6795 38.7414 73.5781 42.7964C73.5274 44.9253 72.9952 46.9528 71.9814 48.879C71.0183 50.8051 69.5484 52.5032 67.5716 53.9731C65.6454 55.4431 63.187 56.6089 60.1965 57.4706C61.1595 57.8761 62.0973 58.535 63.0096 59.4474C63.9727 60.3598 64.7837 61.3229 65.4427 62.3366L69.0162 67.6589C70.1313 69.3823 71.1197 70.7508 71.9814 71.7646C72.8431 72.7784 73.7048 73.5387 74.5665 74.0456C75.4282 74.5018 76.4166 74.7552 77.5318 74.8059V79.824H64.9865C64.0741 79.1651 63.1617 78.2273 62.2493 77.0108C61.3876 75.7436 60.4499 74.299 59.4361 72.677L53.8098 63.5532C53.1508 62.5394 52.5679 61.6777 52.061 60.9681C51.6048 60.2584 51.1233 59.6502 50.6164 59.1433C49.8054 59.1433 49.1211 59.1433 48.5636 59.1433C48.006 59.1433 47.3724 59.1433 46.6628 59.1433V67.2787C46.6628 68.698 46.6374 70.0412 46.5867 71.3084C46.536 72.5756 46.46 73.5387 46.3586 74.1976C46.9162 74.1469 47.6258 74.1216 48.4875 74.1216C49.3492 74.0709 50.1856 74.0456 50.9966 74.0456C51.8583 73.9949 52.4665 73.9695 52.8214 73.9695V79.824H30.2398ZM50.3123 53.669C53.1508 53.669 55.4318 53.2635 57.1552 52.4525C58.8786 51.5908 60.1204 50.3236 60.8807 48.6509C61.6918 46.9275 62.0973 44.7732 62.0973 42.1882C62.0973 39.7551 61.7171 37.8543 60.9568 36.4858C60.1965 35.0665 59.2334 34.0274 58.0676 33.3685C56.9524 32.6588 55.812 32.228 54.6461 32.0759C53.4803 31.8731 52.5172 31.7718 51.7569 31.7718C50.6925 31.7718 49.7801 31.8985 49.0198 32.1519C48.2594 32.4054 47.6765 32.9629 47.271 33.8246C46.8655 34.6863 46.6628 36.0042 46.6628 37.7783V53.3649C47.2203 53.4156 47.8032 53.4916 48.4115 53.593C49.0198 53.6436 49.6534 53.669 50.3123 53.669Z" fill="white"/>
<path d="M26.4382 57.0144H78.5962V60.816H26.4382V57.0144Z" fill="white"/>
<path d="M52.5 103.5C80.6665 103.5 103.5 80.6665 103.5 52.5C103.5 24.3335 80.6665 1.5 52.5 1.5C24.3335 1.5 1.5 24.3335 1.5 52.5C1.5 80.6665 24.3335 103.5 52.5 103.5Z" stroke="white" stroke-width="3"/>
</svg>
