<svg viewBox="0 0 99 99" fill="none" xmlns="http://www.w3.org/2000/svg">
<path d="M99 49.5C99 76.8381 76.8381 99 49.5 99C22.1619 99 0 76.8381 0 49.5C0 22.1619 22.1619 0 49.5 0C76.8381 0 99 22.1619 99 49.5Z" fill="white"/>
<path d="M27.2398 76.824V71.8059C28.4057 71.7552 29.3687 71.6031 30.1291 71.3497C30.9401 71.0963 31.5483 70.5133 31.9538 69.601C32.41 68.6886 32.6381 67.2186 32.6381 65.1911V36.0708C32.6381 34.7023 32.6635 33.3844 32.7142 32.1172C32.8155 30.85 32.8916 29.8869 32.9422 29.228C32.1312 29.2787 31.1175 29.3293 29.901 29.38C28.6845 29.38 27.7974 29.4054 27.2398 29.4561V23.6016C30.8387 23.5509 34.4375 23.5256 38.0364 23.5256C41.6352 23.5256 45.2341 23.5002 48.8329 23.4495C53.2935 23.3988 57.1711 23.9057 60.4658 24.9702C63.7606 26.0346 66.295 27.758 68.069 30.1404C69.8431 32.5227 70.6795 35.7414 70.5781 39.7964C70.5274 41.9253 69.9952 43.9528 68.9814 45.879C68.0183 47.8051 66.5484 49.5032 64.5716 50.9731C62.6454 52.4431 60.187 53.6089 57.1965 54.4706C58.1595 54.8761 59.0973 55.535 60.0096 56.4474C60.9727 57.3598 61.7837 58.3229 62.4427 59.3366L66.0162 64.6589C67.1313 66.3823 68.1197 67.7508 68.9814 68.7646C69.8431 69.7784 70.7048 70.5387 71.5665 71.0456C72.4282 71.5018 73.4166 71.7552 74.5318 71.8059V76.824H61.9865C61.0741 76.1651 60.1617 75.2273 59.2493 74.0108C58.3876 72.7436 57.4499 71.299 56.4361 69.677L50.8098 60.5532C50.1508 59.5394 49.5679 58.6777 49.061 57.9681C48.6048 57.2584 48.1233 56.6502 47.6164 56.1433C46.8054 56.1433 46.1211 56.1433 45.5636 56.1433C45.006 56.1433 44.3724 56.1433 43.6628 56.1433V64.2787C43.6628 65.698 43.6374 67.0412 43.5867 68.3084C43.536 69.5756 43.46 70.5387 43.3586 71.1976C43.9162 71.1469 44.6258 71.1216 45.4875 71.1216C46.3492 71.0709 47.1856 71.0456 47.9966 71.0456C48.8583 70.9949 49.4665 70.9695 49.8214 70.9695V76.824H27.2398ZM47.3123 50.669C50.1508 50.669 52.4318 50.2635 54.1552 49.4525C55.8786 48.5908 57.1204 47.3236 57.8807 45.6509C58.6918 43.9275 59.0973 41.7732 59.0973 39.1882C59.0973 36.7551 58.7171 34.8543 57.9568 33.4858C57.1965 32.0665 56.2334 31.0274 55.0676 30.3685C53.9524 29.6588 52.812 29.228 51.6461 29.0759C50.4803 28.8731 49.5172 28.7718 48.7569 28.7718C47.6925 28.7718 46.7801 28.8985 46.0198 29.1519C45.2594 29.4054 44.6765 29.9629 44.271 30.8246C43.8655 31.6863 43.6628 33.0042 43.6628 34.7783V50.3649C44.2203 50.4156 44.8032 50.4916 45.4115 50.593C46.0198 50.6436 46.6534 50.669 47.3123 50.669Z" fill="black"/>
<path d="M23.4382 54.0144H75.5962V57.816H23.4382V54.0144Z" fill="black"/>
</svg>
