<svg viewBox="0 0 61 60" fill="none" xmlns="http://www.w3.org/2000/svg">
<rect x="0.327148" width="60" height="60" fill="white"/>
<path d="M31.8009 40.5C20.5261 40.5 14.0951 32.6171 13.8271 19.5H19.4749C19.6604 29.1276 23.824 33.2057 27.122 34.0465V19.5H32.4399V27.8033C35.6966 27.4459 39.1182 23.6622 40.2725 19.5H45.5904C45.1555 21.6586 44.2884 23.7025 43.0436 25.5038C41.7987 27.305 40.2027 28.825 38.3556 29.9685C40.4175 31.0133 42.2386 32.4922 43.6989 34.3076C45.1592 36.123 46.2254 38.2335 46.8271 40.5H40.9733C40.4331 38.5314 39.3352 36.7692 37.8172 35.4342C36.2992 34.0993 34.4286 33.2509 32.4399 32.9955V40.5H31.8009Z" fill="black"/>
</svg>
