<svg viewBox="0 0 60 60" fill="none" xmlns="http://www.w3.org/2000/svg">
<rect width="60" height="60" fill="white"/>
<path fill-rule="evenodd" clip-rule="evenodd" d="M16.8937 40.5852C16.3053 40.4111 15.7685 40.1014 15.3284 39.6823C14.8884 39.2631 14.5581 38.7468 14.3654 38.1768C13.2644 35.2311 12.9381 22.9304 15.0587 20.5021C15.7644 19.7122 16.7608 19.2258 17.8317 19.1486C23.5204 18.5515 41.0962 18.6311 43.1148 19.3477C43.6825 19.5275 44.2012 19.8304 44.632 20.2337C45.0628 20.637 45.3945 21.1302 45.6023 21.6764C46.8053 24.7218 46.8461 35.7884 45.4392 38.7142C45.066 39.4759 44.4412 40.0928 43.6653 40.4658C41.5448 41.5008 19.7075 41.4809 16.8937 40.5852ZM25.9263 34.8131L36.1211 29.638L25.9263 24.4232V34.8131Z" fill="black"/>
</svg>
